<svg xmlns="http://www.w3.org/2000/svg" width="64" height="64" viewBox="0 0 512 512">
  <defs>
    <linearGradient id="g" x1="0" y1="0" x2="1" y2="1">
      <stop offset="0" stop-color="#E12F3E"/>
      <stop offset="1" stop-color="#B01824"/>
    </linearGradient>
  </defs>
  <rect width="512" height="512" rx="116" fill="url(#g)"/>
  <g fill="#FFFFFF">
    <rect x="240" y="70" width="32" height="46" rx="16"/>
    <circle cx="256" cy="66" r="22"/>
    <path d="M176 118h160a76 76 0 0 1 76 76v112a76 76 0 0 1-76 76H222l-58 58c-9 9-24 3-24-10v-50a76 76 0 0 1-40-66V194a76 76 0 0 1 76-76z"/>
  </g>
  <g fill="#D92632">
    <rect x="186" y="190" width="42" height="66" rx="21"/>
    <rect x="284" y="190" width="42" height="66" rx="21"/>
  </g>
  <path d="M204 300q52 46 104 0" stroke="#D92632" stroke-width="20" stroke-linecap="round" fill="none"/>
</svg>
